#N canvas 56 96 1310 672 12;
#X obj 267 381 makenote;
#X obj 428 458 noteout;
#X obj 397 7 tgl 15 0 empty empty empty 17 7 0 10 -262144 -1 -1 0 1
;
#X obj 44 98 random 3;
#X floatatom 45 139 5 0 0 0 - - -;
#X obj 48 171 sel 0 1 2, f 51;
#X msg 48 253 60 \, 64 \, 71 \, 74;
#X obj 48 212 bng 15 250 50 0 empty empty empty 17 7 0 10 -262144 -1
-1;
#X obj 166 210 bng 15 250 50 0 empty empty empty 17 7 0 10 -262144
-1 -1;
#X msg 166 252 65 \, 68 \, 72 \, 74;
#X obj 284 208 bng 15 250 50 0 empty empty empty 17 7 0 10 -262144
-1 -1;
#X msg 284 250 67 \, 71 \, 74 \, 81;
#X obj 339 290 loadbang;
#X msg 339 339 3000;
#X obj 767 403 makenote;
#X floatatom 480 136 5 0 0 0 - - -;
#X obj 483 209 bng 15 250 50 0 empty empty empty 17 7 0 10 -262144
-1 -1;
#X obj 533 204 bng 15 250 50 0 empty empty empty 17 7 0 10 -262144
-1 -1;
#X obj 583 204 bng 15 250 50 0 empty empty empty 17 7 0 10 -262144
-1 -1;
#X obj 927 300 loadbang;
#X obj 633 199 bng 15 250 50 0 empty empty empty 17 7 0 10 -262144
-1 -1;
#X obj 683 198 bng 15 250 50 0 empty empty empty 17 7 0 10 -262144
-1 -1;
#X obj 733 197 bng 15 250 50 0 empty empty empty 17 7 0 10 -262144
-1 -1;
#X msg 927 349 200;
#X msg 293 343 70;
#X msg 881 353 50;
#X obj 479 95 random 10;
#X msg 483 250 83;
#X msg 533 246 84;
#X msg 583 246 88;
#X msg 633 241 89;
#X msg 683 240 91;
#X msg 733 239 95;
#X obj 483 168 sel 0 1 2 3 4 5 6 7 8 9, f 72;
#X obj 782 197 bng 15 250 50 0 empty empty empty 17 7 0 10 -262144
-1 -1;
#X obj 833 198 bng 15 250 50 0 empty empty empty 17 7 0 10 -262144
-1 -1;
#X obj 883 197 bng 15 250 50 0 empty empty empty 17 7 0 10 -262144
-1 -1;
#X obj 935 196 bng 15 250 50 0 empty empty empty 17 7 0 10 -262144
-1 -1;
#X msg 782 239 96;
#X msg 833 240 98;
#X msg 883 239 100;
#X msg 935 238 101;
#X obj 478 62 metro 250;
#X obj 43 65 metro 2500;
#X connect 0 0 1 0;
#X connect 0 1 1 1;
#X connect 2 0 42 0;
#X connect 2 0 43 0;
#X connect 3 0 4 0;
#X connect 4 0 5 0;
#X connect 5 0 7 0;
#X connect 5 1 8 0;
#X connect 5 2 10 0;
#X connect 6 0 0 0;
#X connect 7 0 6 0;
#X connect 8 0 9 0;
#X connect 9 0 0 0;
#X connect 10 0 11 0;
#X connect 11 0 0 0;
#X connect 12 0 24 0;
#X connect 12 0 13 0;
#X connect 13 0 0 2;
#X connect 14 0 1 0;
#X connect 14 1 1 1;
#X connect 15 0 33 0;
#X connect 16 0 27 0;
#X connect 17 0 28 0;
#X connect 18 0 29 0;
#X connect 19 0 25 0;
#X connect 19 0 23 0;
#X connect 20 0 30 0;
#X connect 21 0 31 0;
#X connect 22 0 32 0;
#X connect 23 0 14 2;
#X connect 24 0 0 1;
#X connect 25 0 14 1;
#X connect 26 0 15 0;
#X connect 27 0 14 0;
#X connect 28 0 14 0;
#X connect 29 0 14 0;
#X connect 30 0 14 0;
#X connect 31 0 14 0;
#X connect 32 0 14 0;
#X connect 33 0 16 0;
#X connect 33 1 17 0;
#X connect 33 2 18 0;
#X connect 33 3 20 0;
#X connect 33 4 21 0;
#X connect 33 5 22 0;
#X connect 33 6 34 0;
#X connect 33 7 35 0;
#X connect 33 8 36 0;
#X connect 33 9 37 0;
#X connect 34 0 38 0;
#X connect 35 0 39 0;
#X connect 36 0 40 0;
#X connect 37 0 41 0;
#X connect 38 0 14 0;
#X connect 39 0 14 0;
#X connect 40 0 14 0;
#X connect 41 0 14 0;
#X connect 42 0 26 0;
#X connect 43 0 3 0;
